<svg width="47" height="40" viewBox="0 0 47 40" fill="none" xmlns="http://www.w3.org/2000/svg">
<path d="M1.66 20.4783V6.47827H7.72C8.97333 6.47827 10.0533 6.68494 10.96 7.09827C11.8667 7.49827 12.5667 8.07827 13.06 8.83827C13.5533 9.59827 13.8 10.5049 13.8 11.5583C13.8 12.5983 13.5533 13.4983 13.06 14.2583C12.5667 15.0183 11.8667 15.6049 10.96 16.0183C10.0533 16.4183 8.97333 16.6183 7.72 16.6183H3.46L4.9 15.1583V20.4783H1.66ZM4.9 15.5183L3.46 13.9783H7.54C8.54 13.9783 9.28667 13.7649 9.78 13.3383C10.2733 12.9116 10.52 12.3183 10.52 11.5583C10.52 10.7849 10.2733 10.1849 9.78 9.75827C9.28667 9.3316 8.54 9.11827 7.54 9.11827H3.46L4.9 7.57827V15.5183ZM20.8936 20.6383C19.7469 20.6383 18.7269 20.3983 17.8336 19.9183C16.9536 19.4383 16.2536 18.7849 15.7336 17.9583C15.2269 17.1183 14.9736 16.1649 14.9736 15.0983C14.9736 14.0183 15.2269 13.0649 15.7336 12.2383C16.2536 11.3983 16.9536 10.7449 17.8336 10.2783C18.7269 9.79827 19.7469 9.55827 20.8936 9.55827C22.0269 9.55827 23.0403 9.79827 23.9336 10.2783C24.8269 10.7449 25.5269 11.3916 26.0336 12.2183C26.5403 13.0449 26.7936 14.0049 26.7936 15.0983C26.7936 16.1649 26.5403 17.1183 26.0336 17.9583C25.5269 18.7849 24.8269 19.4383 23.9336 19.9183C23.0403 20.3983 22.0269 20.6383 20.8936 20.6383ZM20.8936 18.0783C21.4136 18.0783 21.8803 17.9583 22.2936 17.7183C22.7069 17.4783 23.0336 17.1383 23.2736 16.6983C23.5136 16.2449 23.6336 15.7116 23.6336 15.0983C23.6336 14.4716 23.5136 13.9383 23.2736 13.4983C23.0336 13.0583 22.7069 12.7183 22.2936 12.4783C21.8803 12.2383 21.4136 12.1183 20.8936 12.1183C20.3736 12.1183 19.9069 12.2383 19.4936 12.4783C19.0803 12.7183 18.7469 13.0583 18.4936 13.4983C18.2536 13.9383 18.1336 14.4716 18.1336 15.0983C18.1336 15.7116 18.2536 16.2449 18.4936 16.6983C18.7469 17.1383 19.0803 17.4783 19.4936 17.7183C19.9069 17.9583 20.3736 18.0783 20.8936 18.0783ZM33.8991 20.6383C32.7524 20.6383 31.7324 20.3983 30.8391 19.9183C29.9591 19.4383 29.2591 18.7849 28.7391 17.9583C28.2324 17.1183 27.9791 16.1649 27.9791 15.0983C27.9791 14.0183 28.2324 13.0649 28.7391 12.2383C29.2591 11.3983 29.9591 10.7449 30.8391 10.2783C31.7324 9.79827 32.7524 9.55827 33.8991 9.55827C35.0324 9.55827 36.0457 9.79827 36.9391 10.2783C37.8324 10.7449 38.5324 11.3916 39.0391 12.2183C39.5457 13.0449 39.7991 14.0049 39.7991 15.0983C39.7991 16.1649 39.5457 17.1183 39.0391 17.9583C38.5324 18.7849 37.8324 19.4383 36.9391 19.9183C36.0457 20.3983 35.0324 20.6383 33.8991 20.6383ZM33.8991 18.0783C34.4191 18.0783 34.8857 17.9583 35.2991 17.7183C35.7124 17.4783 36.0391 17.1383 36.2791 16.6983C36.5191 16.2449 36.6391 15.7116 36.6391 15.0983C36.6391 14.4716 36.5191 13.9383 36.2791 13.4983C36.0391 13.0583 35.7124 12.7183 35.2991 12.4783C34.8857 12.2383 34.4191 12.1183 33.8991 12.1183C33.3791 12.1183 32.9124 12.2383 32.4991 12.4783C32.0857 12.7183 31.7524 13.0583 31.4991 13.4983C31.2591 13.9383 31.1391 14.4716 31.1391 15.0983C31.1391 15.7116 31.2591 16.2449 31.4991 16.6983C31.7524 17.1383 32.0857 17.4783 32.4991 17.7183C32.9124 17.9583 33.3791 18.0783 33.8991 18.0783ZM41.7845 20.4783V5.63827H44.9045V20.4783H41.7845Z" fill="#262626"/>
<mask id="path-2-inside-1_23_59" fill="white">
<path d="M2 20C2 25.3043 4.26517 30.3914 8.2972 34.1421C12.3292 37.8929 17.7978 40 23.5 40C29.2022 40 34.6708 37.8929 38.7028 34.1421C42.7348 30.3914 45 25.3043 45 20L41.7742 20C41.7742 24.5085 39.8489 28.8323 36.4218 32.0203C32.9947 35.2082 28.3466 36.9992 23.5 36.9992C18.6534 36.9992 14.0053 35.2082 10.5782 32.0203C7.15114 28.8323 5.22584 24.5085 5.22584 20L2 20Z"/>
</mask>
<path d="M2 20C2 25.3043 4.26517 30.3914 8.2972 34.1421C12.3292 37.8929 17.7978 40 23.5 40C29.2022 40 34.6708 37.8929 38.7028 34.1421C42.7348 30.3914 45 25.3043 45 20L41.7742 20C41.7742 24.5085 39.8489 28.8323 36.4218 32.0203C32.9947 35.2082 28.3466 36.9992 23.5 36.9992C18.6534 36.9992 14.0053 35.2082 10.5782 32.0203C7.15114 28.8323 5.22584 24.5085 5.22584 20L2 20Z" fill="#262626" stroke="#262626" stroke-width="4" mask="url(#path-2-inside-1_23_59)"/>
</svg>
