<svg width="47" height="40" viewBox="0 0 47 40" fill="none" xmlns="http://www.w3.org/2000/svg">
<path d="M1.66 20V6H7.72C8.97333 6 10.0533 6.20667 10.96 6.62C11.8667 7.02 12.5667 7.6 13.06 8.36C13.5533 9.12 13.8 10.0267 13.8 11.08C13.8 12.12 13.5533 13.02 13.06 13.78C12.5667 14.54 11.8667 15.1267 10.96 15.54C10.0533 15.94 8.97333 16.14 7.72 16.14H3.46L4.9 14.68V20H1.66ZM4.9 15.04L3.46 13.5H7.54C8.54 13.5 9.28667 13.2867 9.78 12.86C10.2733 12.4333 10.52 11.84 10.52 11.08C10.52 10.3067 10.2733 9.70667 9.78 9.28C9.28667 8.85333 8.54 8.64 7.54 8.64H3.46L4.9 7.1V15.04ZM20.8936 20.16C19.7469 20.16 18.7269 19.92 17.8336 19.44C16.9536 18.96 16.2536 18.3067 15.7336 17.48C15.2269 16.64 14.9736 15.6867 14.9736 14.62C14.9736 13.54 15.2269 12.5867 15.7336 11.76C16.2536 10.92 16.9536 10.2667 17.8336 9.8C18.7269 9.32 19.7469 9.08 20.8936 9.08C22.0269 9.08 23.0403 9.32 23.9336 9.8C24.8269 10.2667 25.5269 10.9133 26.0336 11.74C26.5403 12.5667 26.7936 13.5267 26.7936 14.62C26.7936 15.6867 26.5403 16.64 26.0336 17.48C25.5269 18.3067 24.8269 18.96 23.9336 19.44C23.0403 19.92 22.0269 20.16 20.8936 20.16ZM20.8936 17.6C21.4136 17.6 21.8803 17.48 22.2936 17.24C22.7069 17 23.0336 16.66 23.2736 16.22C23.5136 15.7667 23.6336 15.2333 23.6336 14.62C23.6336 13.9933 23.5136 13.46 23.2736 13.02C23.0336 12.58 22.7069 12.24 22.2936 12C21.8803 11.76 21.4136 11.64 20.8936 11.64C20.3736 11.64 19.9069 11.76 19.4936 12C19.0803 12.24 18.7469 12.58 18.4936 13.02C18.2536 13.46 18.1336 13.9933 18.1336 14.62C18.1336 15.2333 18.2536 15.7667 18.4936 16.22C18.7469 16.66 19.0803 17 19.4936 17.24C19.9069 17.48 20.3736 17.6 20.8936 17.6ZM33.8991 20.16C32.7524 20.16 31.7324 19.92 30.8391 19.44C29.9591 18.96 29.2591 18.3067 28.7391 17.48C28.2324 16.64 27.9791 15.6867 27.9791 14.62C27.9791 13.54 28.2324 12.5867 28.7391 11.76C29.2591 10.92 29.9591 10.2667 30.8391 9.8C31.7324 9.32 32.7524 9.08 33.8991 9.08C35.0324 9.08 36.0457 9.32 36.9391 9.8C37.8324 10.2667 38.5324 10.9133 39.0391 11.74C39.5457 12.5667 39.7991 13.5267 39.7991 14.62C39.7991 15.6867 39.5457 16.64 39.0391 17.48C38.5324 18.3067 37.8324 18.96 36.9391 19.44C36.0457 19.92 35.0324 20.16 33.8991 20.16ZM33.8991 17.6C34.4191 17.6 34.8857 17.48 35.2991 17.24C35.7124 17 36.0391 16.66 36.2791 16.22C36.5191 15.7667 36.6391 15.2333 36.6391 14.62C36.6391 13.9933 36.5191 13.46 36.2791 13.02C36.0391 12.58 35.7124 12.24 35.2991 12C34.8857 11.76 34.4191 11.64 33.8991 11.64C33.3791 11.64 32.9124 11.76 32.4991 12C32.0857 12.24 31.7524 12.58 31.4991 13.02C31.2591 13.46 31.1391 13.9933 31.1391 14.62C31.1391 15.2333 31.2591 15.7667 31.4991 16.22C31.7524 16.66 32.0857 17 32.4991 17.24C32.9124 17.48 33.3791 17.6 33.8991 17.6ZM41.7845 20V5.16H44.9045V20H41.7845Z" fill="#2563EB"/>
<mask id="path-2-inside-1_23_58" fill="white">
<path d="M2 20C2 25.3043 4.26517 30.3914 8.2972 34.1421C12.3292 37.8929 17.7978 40 23.5 40C29.2022 40 34.6708 37.8929 38.7028 34.1421C42.7348 30.3914 45 25.3043 45 20L41.7742 20C41.7742 24.5085 39.8489 28.8323 36.4218 32.0203C32.9947 35.2082 28.3466 36.9992 23.5 36.9992C18.6534 36.9992 14.0053 35.2082 10.5782 32.0203C7.15114 28.8323 5.22584 24.5085 5.22584 20L2 20Z"/>
</mask>
<path d="M2 20C2 25.3043 4.26517 30.3914 8.2972 34.1421C12.3292 37.8929 17.7978 40 23.5 40C29.2022 40 34.6708 37.8929 38.7028 34.1421C42.7348 30.3914 45 25.3043 45 20L41.7742 20C41.7742 24.5085 39.8489 28.8323 36.4218 32.0203C32.9947 35.2082 28.3466 36.9992 23.5 36.9992C18.6534 36.9992 14.0053 35.2082 10.5782 32.0203C7.15114 28.8323 5.22584 24.5085 5.22584 20L2 20Z" fill="#2563EB" stroke="#2563EB" stroke-width="4" mask="url(#path-2-inside-1_23_58)"/>
</svg>
