<svg width="23" height="20" viewBox="0 0 23 20" fill="none" xmlns="http://www.w3.org/2000/svg">
<path d="M0.83 10V3H3.86C4.48667 3 5.02667 3.10333 5.48 3.31C5.93333 3.51 6.28333 3.8 6.53 4.18C6.77667 4.56 6.9 5.01333 6.9 5.54C6.9 6.06 6.77667 6.51 6.53 6.89C6.28333 7.27 5.93333 7.56333 5.48 7.77C5.02667 7.97 4.48667 8.07 3.86 8.07H1.73L2.45 7.34V10H0.83ZM2.45 7.52L1.73 6.75H3.77C4.27 6.75 4.64333 6.64333 4.89 6.43C5.13667 6.21667 5.26 5.92 5.26 5.54C5.26 5.15333 5.13667 4.85333 4.89 4.64C4.64333 4.42667 4.27 4.32 3.77 4.32H1.73L2.45 3.55V7.52ZM10.2968 10.08C9.72346 10.08 9.21346 9.96 8.7668 9.72C8.3268 9.48 7.9768 9.15333 7.7168 8.74C7.46346 8.32 7.3368 7.84333 7.3368 7.31C7.3368 6.77 7.46346 6.29333 7.7168 5.88C7.9768 5.46 8.3268 5.13333 8.7668 4.9C9.21346 4.66 9.72346 4.54 10.2968 4.54C10.8635 4.54 11.3701 4.66 11.8168 4.9C12.2635 5.13333 12.6135 5.45667 12.8668 5.87C13.1201 6.28333 13.2468 6.76333 13.2468 7.31C13.2468 7.84333 13.1201 8.32 12.8668 8.74C12.6135 9.15333 12.2635 9.48 11.8168 9.72C11.3701 9.96 10.8635 10.08 10.2968 10.08ZM10.2968 8.8C10.5568 8.8 10.7901 8.74 10.9968 8.62C11.2035 8.5 11.3668 8.33 11.4868 8.11C11.6068 7.88333 11.6668 7.61667 11.6668 7.31C11.6668 6.99667 11.6068 6.73 11.4868 6.51C11.3668 6.29 11.2035 6.12 10.9968 6C10.7901 5.88 10.5568 5.82 10.2968 5.82C10.0368 5.82 9.80346 5.88 9.5968 6C9.39013 6.12 9.22346 6.29 9.0968 6.51C8.9768 6.73 8.9168 6.99667 8.9168 7.31C8.9168 7.61667 8.9768 7.88333 9.0968 8.11C9.22346 8.33 9.39013 8.5 9.5968 8.62C9.80346 8.74 10.0368 8.8 10.2968 8.8ZM16.6495 10.08C16.0762 10.08 15.5662 9.96 15.1195 9.72C14.6795 9.48 14.3295 9.15333 14.0695 8.74C13.8162 8.32 13.6895 7.84333 13.6895 7.31C13.6895 6.77 13.8162 6.29333 14.0695 5.88C14.3295 5.46 14.6795 5.13333 15.1195 4.9C15.5662 4.66 16.0762 4.54 16.6495 4.54C17.2162 4.54 17.7229 4.66 18.1695 4.9C18.6162 5.13333 18.9662 5.45667 19.2195 5.87C19.4729 6.28333 19.5995 6.76333 19.5995 7.31C19.5995 7.84333 19.4729 8.32 19.2195 8.74C18.9662 9.15333 18.6162 9.48 18.1695 9.72C17.7229 9.96 17.2162 10.08 16.6495 10.08ZM16.6495 8.8C16.9095 8.8 17.1429 8.74 17.3495 8.62C17.5562 8.5 17.7195 8.33 17.8395 8.11C17.9595 7.88333 18.0195 7.61667 18.0195 7.31C18.0195 6.99667 17.9595 6.73 17.8395 6.51C17.7195 6.29 17.5562 6.12 17.3495 6C17.1429 5.88 16.9095 5.82 16.6495 5.82C16.3895 5.82 16.1562 5.88 15.9495 6C15.7429 6.12 15.5762 6.29 15.4495 6.51C15.3295 6.73 15.2695 6.99667 15.2695 7.31C15.2695 7.61667 15.3295 7.88333 15.4495 8.11C15.5762 8.33 15.7429 8.5 15.9495 8.62C16.1562 8.74 16.3895 8.8 16.6495 8.8ZM20.4423 10V2.58H22.0023V10H20.4423Z" fill="#2563EB"/>
<mask id="path-2-inside-1_24_10" fill="white">
<path d="M0.999999 10C0.999999 12.6522 2.10625 15.1957 4.07538 17.0711C6.04451 18.9464 8.71522 20 11.5 20C14.2848 20 16.9555 18.9464 18.9246 17.0711C20.8938 15.1957 22 12.6522 22 10L20.4246 10C20.4246 12.2542 19.4843 14.4161 17.8106 16.0101C16.137 17.6041 13.8669 18.4996 11.5 18.4996C9.13305 18.4996 6.86305 17.6041 5.18936 16.0101C3.51567 14.4161 2.57541 12.2542 2.57541 10L0.999999 10Z"/>
</mask>
<path d="M0.999999 10C0.999999 12.6522 2.10625 15.1957 4.07538 17.0711C6.04451 18.9464 8.71522 20 11.5 20C14.2848 20 16.9555 18.9464 18.9246 17.0711C20.8938 15.1957 22 12.6522 22 10L20.4246 10C20.4246 12.2542 19.4843 14.4161 17.8106 16.0101C16.137 17.6041 13.8669 18.4996 11.5 18.4996C9.13305 18.4996 6.86305 17.6041 5.18936 16.0101C3.51567 14.4161 2.57541 12.2542 2.57541 10L0.999999 10Z" fill="#2563EB" stroke="#2563EB" stroke-width="2" mask="url(#path-2-inside-1_24_10)"/>
</svg>
