<svg width="84" height="70" viewBox="0 0 84 70" fill="none" xmlns="http://www.w3.org/2000/svg">
<path d="M2.988 35V9.8H13.896C16.152 9.8 18.096 10.172 19.728 10.916C21.36 11.636 22.62 12.68 23.508 14.048C24.396 15.416 24.84 17.048 24.84 18.944C24.84 20.816 24.396 22.436 23.508 23.804C22.62 25.172 21.36 26.228 19.728 26.972C18.096 27.692 16.152 28.052 13.896 28.052H6.228L8.82 25.424V35H2.988ZM8.82 26.072L6.228 23.3H13.572C15.372 23.3 16.716 22.916 17.604 22.148C18.492 21.38 18.936 20.312 18.936 18.944C18.936 17.552 18.492 16.472 17.604 15.704C16.716 14.936 15.372 14.552 13.572 14.552H6.228L8.82 11.78V26.072ZM37.6085 35.288C35.5445 35.288 33.7085 34.856 32.1005 33.992C30.5165 33.128 29.2565 31.952 28.3205 30.464C27.4085 28.952 26.9525 27.236 26.9525 25.316C26.9525 23.372 27.4085 21.656 28.3205 20.168C29.2565 18.656 30.5165 17.48 32.1005 16.64C33.7085 15.776 35.5445 15.344 37.6085 15.344C39.6485 15.344 41.4725 15.776 43.0805 16.64C44.6885 17.48 45.9485 18.644 46.8605 20.132C47.7725 21.62 48.2285 23.348 48.2285 25.316C48.2285 27.236 47.7725 28.952 46.8605 30.464C45.9485 31.952 44.6885 33.128 43.0805 33.992C41.4725 34.856 39.6485 35.288 37.6085 35.288ZM37.6085 30.68C38.5445 30.68 39.3845 30.464 40.1285 30.032C40.8725 29.6 41.4605 28.988 41.8925 28.196C42.3245 27.38 42.5405 26.42 42.5405 25.316C42.5405 24.188 42.3245 23.228 41.8925 22.436C41.4605 21.644 40.8725 21.032 40.1285 20.6C39.3845 20.168 38.5445 19.952 37.6085 19.952C36.6725 19.952 35.8325 20.168 35.0885 20.6C34.3445 21.032 33.7445 21.644 33.2885 22.436C32.8565 23.228 32.6405 24.188 32.6405 25.316C32.6405 26.42 32.8565 27.38 33.2885 28.196C33.7445 28.988 34.3445 29.6 35.0885 30.032C35.8325 30.464 36.6725 30.68 37.6085 30.68ZM61.0183 35.288C58.9543 35.288 57.1183 34.856 55.5103 33.992C53.9263 33.128 52.6663 31.952 51.7303 30.464C50.8183 28.952 50.3623 27.236 50.3623 25.316C50.3623 23.372 50.8183 21.656 51.7303 20.168C52.6663 18.656 53.9263 17.48 55.5103 16.64C57.1183 15.776 58.9543 15.344 61.0183 15.344C63.0583 15.344 64.8823 15.776 66.4903 16.64C68.0983 17.48 69.3583 18.644 70.2703 20.132C71.1823 21.62 71.6383 23.348 71.6383 25.316C71.6383 27.236 71.1823 28.952 70.2703 30.464C69.3583 31.952 68.0983 33.128 66.4903 33.992C64.8823 34.856 63.0583 35.288 61.0183 35.288ZM61.0183 30.68C61.9543 30.68 62.7943 30.464 63.5383 30.032C64.2823 29.6 64.8703 28.988 65.3023 28.196C65.7343 27.38 65.9503 26.42 65.9503 25.316C65.9503 24.188 65.7343 23.228 65.3023 22.436C64.8703 21.644 64.2823 21.032 63.5383 20.6C62.7943 20.168 61.9543 19.952 61.0183 19.952C60.0823 19.952 59.2423 20.168 58.4983 20.6C57.7543 21.032 57.1543 21.644 56.6983 22.436C56.2663 23.228 56.0503 24.188 56.0503 25.316C56.0503 26.42 56.2663 27.38 56.6983 28.196C57.1543 28.988 57.7543 29.6 58.4983 30.032C59.2423 30.464 60.0823 30.68 61.0183 30.68ZM75.2122 35V8.288H80.8282V35H75.2122Z" fill="#262626"/>
<mask id="path-2-inside-1_23_48" fill="white">
<path d="M3 35C2.99999 44.2826 7.10891 53.185 14.4228 59.7487C21.7367 66.3125 31.6565 70 42 70C52.3434 70 62.2632 66.3125 69.5772 59.7487C76.8911 53.185 81 44.2826 81 35L75.1485 35C75.1485 42.8898 71.6561 50.4565 65.4395 56.0355C59.223 61.6144 50.7915 64.7486 42 64.7486C33.2085 64.7486 24.777 61.6144 18.5605 56.0355C12.3439 50.4565 8.85152 42.8898 8.85152 35L3 35Z"/>
</mask>
<path d="M3 35C2.99999 44.2826 7.10891 53.185 14.4228 59.7487C21.7367 66.3125 31.6565 70 42 70C52.3434 70 62.2632 66.3125 69.5772 59.7487C76.8911 53.185 81 44.2826 81 35L75.1485 35C75.1485 42.8898 71.6561 50.4565 65.4395 56.0355C59.223 61.6144 50.7915 64.7486 42 64.7486C33.2085 64.7486 24.777 61.6144 18.5605 56.0355C12.3439 50.4565 8.85152 42.8898 8.85152 35L3 35Z" fill="#262626" stroke="#262626" stroke-width="10" mask="url(#path-2-inside-1_23_48)"/>
</svg>
